<?xml version="1.0" encoding="UTF-8" standalone="no"?>
<!-- Created with Inkscape (http://www.inkscape.org/) -->

<svg
   xmlns:dc="http://purl.org/dc/elements/1.1/"
   xmlns:cc="http://creativecommons.org/ns#"
   xmlns:rdf="http://www.w3.org/1999/02/22-rdf-syntax-ns#"
   xmlns:svg="http://www.w3.org/2000/svg"
   xmlns="http://www.w3.org/2000/svg"
   xmlns:sodipodi="http://sodipodi.sourceforge.net/DTD/sodipodi-0.dtd"
   xmlns:inkscape="http://www.inkscape.org/namespaces/inkscape"
   width="135.84245mm"
   height="187.56401mm"
   viewBox="0 0 135.84245 187.56401"
   version="1.1"
   id="svg8"
   inkscape:version="0.92.4 (5da689c313, 2019-01-14)"
   sodipodi:docname="bug-bounty.svg">
  <defs
     id="defs2" />
  <sodipodi:namedview
     id="base"
     pagecolor="#ffffff"
     bordercolor="#666666"
     borderopacity="1.0"
     inkscape:pageopacity="0.0"
     inkscape:pageshadow="2"
     inkscape:zoom="0.45254834"
     inkscape:cx="-97.299382"
     inkscape:cy="224.26364"
     inkscape:document-units="mm"
     inkscape:current-layer="layer1"
     showgrid="false"
     fit-margin-top="0"
     fit-margin-left="0"
     fit-margin-right="0"
     fit-margin-bottom="0"
     inkscape:window-width="1200"
     inkscape:window-height="1537"
     inkscape:window-x="-8"
     inkscape:window-y="-8"
     inkscape:window-maximized="1" />
  <metadata
     id="metadata5">
    <rdf:RDF>
      <cc:Work
         rdf:about="">
        <dc:format>image/svg+xml</dc:format>
        <dc:type
           rdf:resource="http://purl.org/dc/dcmitype/StillImage" />
        <dc:title></dc:title>
      </cc:Work>
    </rdf:RDF>
  </metadata>
  <g
     inkscape:label="1. réteg"
     inkscape:groupmode="layer"
     id="layer1"
     transform="translate(-40.369862,-38.319834)">
    <g
       id="g4866"
       transform="translate(4.7056768,-10.241924)">
      <g
         style="fill:#517d81;fill-opacity:1"
         transform="matrix(0.41577893,-0.24738828,0.24738828,0.41577893,23.160108,110.27112)"
         id="g3816">
        <rect
           style="fill:#517d81;fill-opacity:1;stroke-width:0.24172615"
           id="rect3748-4"
           width="15.239256"
           height="42.568314"
           x="-193.49437"
           y="-112.41585"
           ry="9.3688869"
           transform="matrix(-0.41226674,-0.91106319,-0.81599344,0.57806116,0,0)"
           inkscape:transform-center-x="-7.9549302"
           inkscape:transform-center-y="-18.112932" />
        <rect
           style="fill:#517d81;fill-opacity:1;stroke-width:0.23951326"
           id="rect3748-7-9"
           width="17.103903"
           height="37.236328"
           x="-158.83844"
           y="-180.03427"
           ry="8.1953678"
           transform="matrix(0.01794913,-0.9998389,-0.99964281,-0.02672533,0,0)"
           inkscape:transform-center-x="-13.31536"
           inkscape:transform-center-y="-11.287695" />
        <rect
           style="fill:#517d81;fill-opacity:1;stroke-width:0.24156187"
           id="rect3748-0-3"
           width="15.061012"
           height="43.013573"
           x="-45.469517"
           y="-252.15674"
           ry="9.4668856"
           transform="matrix(0.55220992,-0.83370511,-0.71841908,-0.69561054,0,0)"
           inkscape:transform-center-x="-16.540681"
           inkscape:transform-center-y="1.9900271" />
      </g>
      <g
         style="fill:#517d81;fill-opacity:1"
         transform="matrix(0.41577893,-0.24738828,0.24738828,0.41577893,22.721656,109.53423)"
         id="g3821">
        <rect
           style="fill:#517d81;fill-opacity:1;stroke-width:0.24172615"
           id="rect3748"
           width="15.239256"
           height="42.56831"
           x="-70.703644"
           y="84.176559"
           ry="9.3688869"
           transform="matrix(0.41226673,-0.91106319,0.81599344,0.57806117,0,0)"
           inkscape:transform-center-x="7.9549323"
           inkscape:transform-center-y="-18.112928" />
        <rect
           style="fill:#517d81;fill-opacity:1;stroke-width:0.23951326"
           id="rect3748-7"
           width="17.103901"
           height="37.236328"
           x="-166.25055"
           y="30.948698"
           ry="8.1953678"
           transform="matrix(-0.01794913,-0.9998389,0.99964281,-0.02672533,0,0)"
           inkscape:transform-center-x="13.315357"
           inkscape:transform-center-y="-11.287697" />
        <rect
           style="fill:#517d81;fill-opacity:1;stroke-width:0.24156187"
           id="rect3748-0"
           width="15.061012"
           height="43.013573"
           x="-196.09456"
           y="-74.17704"
           ry="9.4668856"
           transform="matrix(-0.55220993,-0.8337051,0.71841908,-0.69561054,0,0)"
           inkscape:transform-center-x="16.540684"
           inkscape:transform-center-y="1.9900212" />
      </g>
      <path
         inkscape:connector-curvature="0"
         id="path3715"
         d="m 83.375433,112.40913 a 11.977921,14.720957 59.247374 0 0 -6.526309,17.8208 11.977921,14.720957 59.247374 0 0 2.253563,2.59593 l 24.255303,-14.43188 a 11.977921,14.720957 59.247374 0 0 -1.20698,-3.21865 11.977921,14.720957 59.247374 0 0 -18.775577,-2.7662 z m 0.228495,22.63273 a 11.977921,14.720957 59.247374 0 0 12.020884,-2.04552 11.977921,14.720957 59.247374 0 0 7.533928,-9.58958 z"
         style="fill:#517d81;fill-opacity:1;stroke-width:0.12800832" />
      <path
         sodipodi:nodetypes="ccccccccccccc"
         inkscape:connector-curvature="0"
         id="path3713"
         d="m 88.892301,121.68118 c -3.983963,2.38094 -7.072804,6.06662 -8.89064,10.6098 l 22.476469,-13.37349 c -4.868259,-0.57078 -9.588752,0.38947 -13.585829,2.76369 z m -10.450164,16.43195 c -0.959294,6.63248 0.549534,13.76848 4.216222,19.94059 7.592983,12.7321 22.324391,18.2273 33.639401,12.54843 l -13.32772,-22.39955 2.5145,-1.49613 13.3405,22.42103 c 10.39601,-7.23967 12.5897,-22.82254 5.00774,-35.57254 -3.68199,-6.1671 -9.24075,-10.89392 -15.53224,-13.20757 z"
         style="fill:#365356;fill-opacity:1;stroke-width:0.12800832" />
    </g>
    <text
       xml:space="preserve"
       style="font-style:normal;font-variant:normal;font-weight:bold;font-stretch:normal;font-size:38.80555725px;line-height:1.25;font-family:'Bernard MT Condensed';-inkscape-font-specification:'Bernard MT Condensed, Bold';text-align:center;letter-spacing:0px;word-spacing:0px;text-anchor:middle;fill:#000000;fill-opacity:1;stroke:none;stroke-width:0.26458332"
       x="108.69765"
       y="77.420258"
       id="text4630"><tspan
         sodipodi:role="line"
         id="tspan4628"
         x="108.69765"
         y="77.420258"
         style="font-style:normal;font-variant:normal;font-weight:bold;font-stretch:normal;font-size:42.33333588px;font-family:'Bernard MT Condensed';-inkscape-font-specification:'Bernard MT Condensed, Bold';stroke-width:0.26458332">WANTED</tspan></text>
    <g
       id="g4871"
       transform="translate(5.2159519,-5.2618688)">
      <path
         inkscape:connector-curvature="0"
         id="text4713"
         d="m 58.784923,197.55327 v 2.2195 h -5.649269 v 1.48311 l 2.655652,1.01751 c 0.160972,0.0575 0.305022,0.14948 0.431498,0.27595 0.137975,0.12647 0.206706,0.30489 0.206706,0.53485 v 18.0573 c 0,0.25295 -0.06318,0.443 -0.189651,0.56947 -0.11498,0.12647 -0.264586,0.22402 -0.448553,0.29301 l -2.655652,1.01751 v 1.48311 h 5.649269 v 1.37924 h 2.539379 v -1.37924 h 3.704166 v 1.37924 h 2.538865 v -1.44022 c 0.290476,-0.0208 0.579739,-0.0452 0.866095,-0.077 0.839351,-0.092 1.638406,-0.24108 2.397271,-0.44804 0.758864,-0.21846 1.460378,-0.50604 2.104263,-0.86248 0.655383,-0.35644 1.21285,-0.79311 1.672767,-1.31051 0.471416,-0.52891 0.839359,-1.15562 1.103807,-1.87999 0.275953,-0.73587 0.41393,-1.57536 0.41393,-2.51819 0,-0.86235 -0.172344,-1.64422 -0.517281,-2.3456 -0.344938,-0.71287 -0.827601,-1.3224 -1.448491,-1.82831 -0.609391,-0.50591 -1.339715,-0.90821 -2.190565,-1.20716 -0.850847,-0.29895 -1.787879,-0.47736 -2.811198,-0.53485 v -0.15503 c 0.816356,-0.20696 1.552237,-0.48847 2.207618,-0.84491 0.666882,-0.35644 1.230418,-0.78755 1.690338,-1.29346 0.459917,-0.50591 0.810159,-1.08108 1.051613,-1.72496 0.252955,-0.65538 0.379822,-1.37408 0.379822,-2.15594 0,-0.70138 -0.126867,-1.37964 -0.379822,-2.03502 -0.25295,-0.66688 -0.718434,-1.25316 -1.396812,-1.75907 -0.678379,-0.5174 -1.609858,-0.92578 -2.794146,-1.22473 -0.672285,-0.17796 -1.457814,-0.30286 -2.349209,-0.37878 v -2.30632 h -2.538865 v 2.2195 h -3.704166 v -2.2195 z m 3.319177,5.08237 h 2.121318 c 1.506231,0 2.598423,0.33358 3.276801,1.00046 0.689877,0.66686 1.034563,1.74744 1.034563,3.24216 0,0.5634 -0.08036,1.06932 -0.241329,1.51773 -0.160972,0.43693 -0.431374,0.81094 -0.810802,1.12138 -0.379434,0.31045 -0.879279,0.54597 -1.500169,0.70694 -0.609391,0.16096 -1.374082,0.24133 -2.293916,0.24133 H 62.1041 Z m 0,10.50324 h 2.690276 c 0.942829,0 1.747959,0.0809 2.414838,0.24184 0.66688,0.14948 1.201092,0.40217 1.603521,0.75861 0.413925,0.35642 0.713134,0.82244 0.897101,1.39733 0.195467,0.5634 0.293005,1.25885 0.293005,2.0867 0,1.41425 -0.373493,2.43771 -1.120862,3.0701 -0.747363,0.62088 -1.885553,0.9312 -3.414776,0.9312 H 62.1041 Z"
         style="font-style:normal;font-variant:normal;font-weight:normal;font-stretch:normal;font-size:10.58333302px;line-height:1.25;font-family:'Sitka Text';-inkscape-font-specification:'Sitka Text';text-align:center;letter-spacing:0px;word-spacing:0px;text-anchor:middle;fill:#000000;fill-opacity:1;stroke:none;stroke-width:0.26458332" />
      <path
         id="text4713-4"
         d="m 97.491368,197.55325 v 2.2195 h -5.64927 v 1.48313 l 2.655652,1.0175 c 0.160973,0.0575 0.305018,0.14948 0.431498,0.27595 0.13798,0.12648 0.20671,0.30489 0.20671,0.53485 v 18.0573 c 0,0.25295 -0.0632,0.44299 -0.18965,0.56947 -0.11498,0.12648 -0.26459,0.22402 -0.448558,0.29301 l -2.655652,1.01751 v 1.48312 h 5.64927 v 1.37924 h 2.539372 v -1.37924 h 3.70418 v 1.37924 h 2.53886 v -1.44022 c 0.29048,-0.0208 0.57974,-0.0452 0.8661,-0.077 0.83935,-0.092 1.6384,-0.24107 2.39727,-0.44803 0.75886,-0.21846 1.46037,-0.50604 2.10426,-0.86248 0.65538,-0.35643 1.21285,-0.79311 1.67277,-1.31052 0.47141,-0.52889 0.83936,-1.15562 1.1038,-1.87998 0.27596,-0.73587 0.41393,-1.57536 0.41393,-2.51819 0,-0.86235 -0.17234,-1.64422 -0.51728,-2.34559 -0.34493,-0.71287 -0.8276,-1.32241 -1.44849,-1.82832 -0.60939,-0.5059 -1.33971,-0.90821 -2.19056,-1.20716 -0.85085,-0.29894 -1.78788,-0.47736 -2.8112,-0.53485 v -0.15503 c 0.81636,-0.20696 1.55224,-0.48847 2.20762,-0.84491 0.66688,-0.35643 1.23041,-0.78755 1.69033,-1.29346 0.45992,-0.50591 0.81016,-1.08108 1.05162,-1.72496 0.25295,-0.65539 0.37982,-1.37408 0.37982,-2.15594 0,-0.70137 -0.12687,-1.37963 -0.37982,-2.03502 -0.25295,-0.66687 -0.71844,-1.25315 -1.39681,-1.75906 -0.67838,-0.51741 -1.60986,-0.92578 -2.79415,-1.22473 -0.67229,-0.17797 -1.45781,-0.30286 -2.34921,-0.37879 v -2.30632 h -2.53886 v 2.2195 h -3.70418 v -2.2195 z m 3.319172,5.08238 h 2.12132 c 1.50624,0 2.59843,0.33357 3.27681,1.00046 0.68987,0.66688 1.03456,1.74744 1.03456,3.24217 0,0.5634 -0.0804,1.06932 -0.24133,1.51774 -0.16097,0.43692 -0.43137,0.81094 -0.8108,1.12138 -0.37943,0.31044 -0.87928,0.54596 -1.50017,0.70694 -0.60939,0.16096 -1.37409,0.24132 -2.29392,0.24132 h -1.58647 z m 0,10.50323 h 2.69029 c 0.94282,0 1.74795,0.0809 2.41483,0.24185 0.66688,0.14947 1.20109,0.40217 1.60352,0.75861 0.41393,0.35644 0.71314,0.82243 0.8971,1.39733 0.19547,0.5634 0.29301,1.25884 0.29301,2.08671 0,1.41425 -0.37349,2.43772 -1.12086,3.07008 -0.74737,0.6209 -1.88555,0.93121 -3.41478,0.93121 h -3.36311 z"
         style="font-style:normal;font-variant:normal;font-weight:normal;font-stretch:normal;font-size:10.58333302px;line-height:1.25;font-family:'Sitka Text';-inkscape-font-specification:'Sitka Text';text-align:center;letter-spacing:0px;word-spacing:0px;text-anchor:middle;fill:#000000;fill-opacity:1;stroke:none;stroke-width:0.26458332"
         inkscape:connector-curvature="0" />
      <path
         id="text4713-7"
         d="m 136.19782,197.55325 v 2.21951 h -5.64927 v 1.48312 l 2.65565,1.01751 c 0.16097,0.0575 0.30502,0.14947 0.4315,0.27595 0.13797,0.12647 0.2067,0.30489 0.2067,0.53485 v 18.05729 c 0,0.25296 -0.0632,0.443 -0.18965,0.56948 -0.11498,0.12647 -0.26458,0.22402 -0.44855,0.29301 l -2.65565,1.0175 v 1.48312 h 5.64927 v 1.37924 h 2.53938 v -1.37924 h 3.70416 v 1.37924 h 2.53887 v -1.44022 c 0.29047,-0.0208 0.57974,-0.0452 0.86609,-0.077 0.83935,-0.092 1.63841,-0.24107 2.39727,-0.44804 0.75887,-0.21846 1.46038,-0.50604 2.10427,-0.86248 0.65538,-0.35643 1.21285,-0.7931 1.67276,-1.31051 0.47142,-0.5289 0.83936,-1.15562 1.10381,-1.87999 0.27595,-0.73587 0.41393,-1.57536 0.41393,-2.51819 0,-0.86235 -0.17234,-1.64422 -0.51728,-2.34559 -0.34494,-0.71288 -0.8276,-1.32241 -1.44849,-1.82832 -0.60939,-0.50591 -1.33972,-0.90821 -2.19057,-1.20716 -0.85084,-0.29895 -1.78788,-0.47736 -2.81119,-0.53485 v -0.15503 c 0.81635,-0.20696 1.55223,-0.48847 2.20761,-0.84491 0.66688,-0.35643 1.23042,-0.78755 1.69034,-1.29346 0.45992,-0.50591 0.81016,-1.08107 1.05161,-1.72496 0.25296,-0.65538 0.37983,-1.37408 0.37983,-2.15594 0,-0.70137 -0.12687,-1.37963 -0.37983,-2.03502 -0.25295,-0.66687 -0.71843,-1.25315 -1.39681,-1.75906 -0.67838,-0.5174 -1.60986,-0.92578 -2.79414,-1.22473 -0.67229,-0.17796 -1.45782,-0.30286 -2.34921,-0.37879 v -2.30632 h -2.53887 v 2.2195 h -3.70416 v -2.2195 z m 3.31917,5.08239 h 2.12132 c 1.50623,0 2.59842,0.33357 3.2768,1.00046 0.68988,0.66687 1.03457,1.74744 1.03457,3.24216 0,0.5634 -0.0804,1.06932 -0.24133,1.51774 -0.16098,0.43692 -0.43138,0.81094 -0.81081,1.12138 -0.37943,0.31044 -0.87927,0.54596 -1.50016,0.70693 -0.6094,0.16097 -1.37409,0.24133 -2.29392,0.24133 h -1.58647 z m 0,10.50323 h 2.69028 c 0.94283,0 1.74796,0.0809 2.41484,0.24185 0.66688,0.14947 1.20109,0.40217 1.60352,0.75861 0.41392,0.35643 0.71313,0.82243 0.8971,1.39733 0.19547,0.5634 0.293,1.25884 0.293,2.08669 0,1.41425 -0.37349,2.43771 -1.12086,3.0701 -0.74736,0.62089 -1.88555,0.93121 -3.41477,0.93121 h -3.36311 z"
         style="font-style:normal;font-variant:normal;font-weight:normal;font-stretch:normal;font-size:10.58333302px;line-height:1.25;font-family:'Sitka Text';-inkscape-font-specification:'Sitka Text';text-align:center;letter-spacing:0px;word-spacing:0px;text-anchor:middle;fill:#000000;fill-opacity:1;stroke:none;stroke-width:0.26458332"
         inkscape:connector-curvature="0" />
    </g>
    <flowRoot
       xml:space="preserve"
       id="flowRoot4873"
       style="font-style:normal;font-weight:normal;font-size:40px;line-height:1.25;font-family:sans-serif;text-align:center;letter-spacing:0px;word-spacing:0px;text-anchor:middle;fill:#000000;fill-opacity:1;stroke:none"
       transform="scale(0.26458333)"><flowRegion
         id="flowRegion4875"><rect
           id="rect4877"
           width="1374.4388"
           height="1586.5708"
           x="-97.22718"
           y="-97.239517" /></flowRegion><flowPara
         id="flowPara4879" /></flowRoot>  </g>
</svg>
